HIERARCHY
ROOT Hips
{
	OFFSET 0.00000 0.00000 0.00000
	CHANNELS 6 Xposition Yposition Zposition Zrotation Yrotation Xrotation 
	JOINT LHipJoint
	{
		OFFSET 0 0 0
		CHANNELS 3 Zrotation Yrotation Xrotation
		JOINT LeftHip
		{
			OFFSET 1.62964 -1.40469 0.78906
			CHANNELS 3 Zrotation Yrotation Xrotation
			JOINT LeftKnee
			{
				OFFSET 2.29640 -6.30932 0.00000
				CHANNELS 3 Zrotation Yrotation Xrotation
				JOINT LeftAnkle
				{
					OFFSET 2.29451 -6.30412 0.00000
					CHANNELS 3 Zrotation Yrotation Xrotation
					JOINT LeftToe
					{
						OFFSET 0.03611 -0.09921 1.56387
						CHANNELS 3 Zrotation Yrotation Xrotation
						End Site
						{
							OFFSET 0.00000 -0.00000 0.80291
						}
					}
				}
			}
		}
	}
	JOINT RHipJoint
	{
		OFFSET 0 0 0
		CHANNELS 3 Zrotation Yrotation Xrotation
		JOINT RightHip
		{
			OFFSET -1.73712 -1.40469 0.78906
			CHANNELS 3 Zrotation Yrotation Xrotation
			JOINT RightKnee
			{
				OFFSET -2.28137 -6.26801 0.00000
				CHANNELS 3 Zrotation Yrotation Xrotation
				JOINT RightAnkle
				{
					OFFSET -2.28681 -6.28298 0.00000
					CHANNELS 3 Zrotation Yrotation Xrotation
					JOINT RightToe
					{
						OFFSET -0.15927 -0.43759 1.61103
						CHANNELS 3 Zrotation Yrotation Xrotation
						End Site
						{
							OFFSET -0.00000 -0.00000 0.84630
						}
					}
				}
			}
		}
	}
	JOINT lowerback
	{
		OFFSET 0 0 0
		CHANNELS 3 Zrotation Yrotation Xrotation
		JOINT Chest
		{
			OFFSET -0.04227 2.04338 -0.00225
			CHANNELS 3 Zrotation Yrotation Xrotation
			JOINT Chest2
			{
				OFFSET -0.02148 2.04482 -0.04273
				CHANNELS 3 Zrotation Yrotation Xrotation
				JOINT lowerneck
				{
					OFFSET 0 0 0
					CHANNELS 3 Zrotation Yrotation Xrotation
					JOINT Neck
					{
						OFFSET 0.09180 1.44629 0.19359
						CHANNELS 3 Zrotation Yrotation Xrotation
						JOINT Head
						{
							OFFSET 0.00887 1.40645 0.14750
							CHANNELS 3 Zrotation Yrotation Xrotation
							End Site
							{
								OFFSET -0.00669 1.50671 0.03707
							}
						}
					}
				}
				JOINT LeftCollar
				{
					OFFSET 0 0 0
					CHANNELS 3 Zrotation Yrotation Xrotation
					JOINT LeftShoulder
					{
						OFFSET 2.17674 1.86763 -0.06520
CHANNELS 3 Zrotation Xrotation Yrotation
						JOINT LeftElbow
						{
OFFSET 0 -4.657760 0.000000
CHANNELS 3 Zrotation Xrotation Yrotation
							JOINT LeftWrist
							{
OFFSET 0 -3.555390 0.000000
CHANNELS 3 Zrotation Xrotation Yrotation
								JOINT lhand
								{
									OFFSET 0 0 0
CHANNELS 3 Zrotation Xrotation Yrotation
									JOINT LFingers
									{
OFFSET 0 -0.707260 0.000000
CHANNELS 3 Zrotation Xrotation Yrotation
										End Site
										{
OFFSET 0 -0.570220 0.000000
										}
									}
								}
								JOINT LThumb
								{
OFFSET 0 0.000000 0.000000
CHANNELS 3 Zrotation Xrotation Yrotation
									End Site
									{
OFFSET 0 -0.578920 0.578920
									}
								}
							}
						}
					}
				}
				JOINT RightCollar
				{
					OFFSET 0 0 0
					CHANNELS 3 Zrotation Yrotation Xrotation
					JOINT RightShoulder
					{
						OFFSET -2.80694 1.55459 -0.32496
CHANNELS 3 Zrotation Xrotation Yrotation
						JOINT RightElbow
						{
OFFSET 0 -4.719250 -0.000000
CHANNELS 3 Zrotation Xrotation Yrotation
							JOINT RightWrist
							{
OFFSET 0 -3.569900 0.000000
CHANNELS 3 Zrotation Xrotation Yrotation
								JOINT rhand
								{
									OFFSET 0 0 0
CHANNELS 3 Zrotation Xrotation Yrotation
									JOINT RFingers
									{
OFFSET 0 -0.507760 0.000000
CHANNELS 3 Zrotation Xrotation Yrotation
										End Site
										{
OFFSET 0 -0.409370 0.000000
										}
									}
								}
								JOINT RThumb
								{
OFFSET 0 0.000000 0.000000
CHANNELS 3 Zrotation Xrotation Yrotation
									End Site
									{
OFFSET 0 -0.415620 0.415620
									}
								}
							}
						}
					}
				}
			}
		}
	}
}
MOTION
Frames: 4
Frame Time: 0.008333333333333333
15.250137 16.955715 15.997086 172.848831 2.520901 -167.536576 0.000000 0.000000 0.000000 -1.286945 -19.928187 -45.512134 0.954406 6.221201 17.427586 0.716459 16.170071 17.670681 1.030396 -6.456668 -18.115451 0.000000 0.000000 0.000000 14.309218 9.083269 6.346382 -1.815281 -8.470198 24.151506 -3.315320 3.210375 -33.745571 -2.762730 10.300524 -29.955675 -3.097485 -0.654428 -28.517606 -0.711725 0.563816 1.788606 1.180778 0.092343 17.313486 -1.356610 2.062108 -1.613410 0.263362 5.086453 22.941353 0.752148 3.149973 7.249737 0.000000 0.000000 0.000000 6.217451 8.663415 -10.178010 10.823341 -18.017048 1.720908 18.124578 1.866739 12.630572 0.000000 0.000000 0.000000 -7.125000 0.000000 0.000000 -6.330978 16.764014 -4.262159 0.000000 0.000000 0.000000 -3.824074 4.097378 14.441820 -22.804029 -33.873736 -7.028767 -10.683150 4.295051 52.802298 0.000000 0.000000 0.000000 7.125000 0.000000 0.000000 66.657515 75.167493 -51.949207
15.206235 16.938673 15.922477 172.978262 2.530019 -167.370780 0.000000 0.000000 0.000000 -1.476264 -19.763921 -45.598216 0.976666 6.291213 17.631713 0.816366 16.071117 18.390113 1.095794 -6.651262 -18.686616 0.000000 0.000000 0.000000 14.323714 9.034305 6.524413 -1.803722 -8.444639 24.072815 -3.290519 3.056620 -33.646149 -2.799004 10.362244 -30.158031 -3.099473 -0.655506 -28.222810 -0.718096 0.552335 1.690077 1.169503 0.094181 17.048688 -1.278747 2.072693 -1.624607 0.339268 5.060477 22.874727 0.759992 3.144443 7.229068 0.000000 0.000000 0.000000 6.289370 8.842138 -10.217368 10.943160 -18.201058 1.758197 17.906429 1.754243 12.539809 0.000000 0.000000 0.000000 -7.125000 0.000000 0.000000 -6.480829 16.876500 -4.348384 0.000000 0.000000 0.000000 -3.708973 4.100434 14.582324 -22.992678 -34.080662 -7.134224 -10.711848 4.251844 52.958905 0.000000 0.000000 0.000000 7.125000 0.000000 0.000000 67.219665 75.226201 -52.525872
15.155254 16.921207 15.839931 173.098496 2.642741 -167.200487 0.000000 0.000000 0.000000 -1.579423 -19.749952 -45.603198 1.002121 6.370106 17.862133 0.880288 16.112122 18.882028 1.263812 -7.119293 -20.072005 0.000000 0.000000 0.000000 14.207570 8.962172 6.645839 -1.796416 -8.428370 24.022996 -3.262672 3.002278 -33.509296 -2.823288 10.403342 -30.292982 -3.056859 -0.612769 -28.077765 -0.734631 0.589932 1.659875 1.142473 0.117074 16.939606 -1.316995 1.548702 -1.733266 0.389660 4.427373 23.485866 0.759674 2.870159 7.453298 0.000000 0.000000 0.000000 6.290629 8.847601 -9.969163 10.982746 -18.261779 1.770497 17.727191 1.874879 12.556440 0.000000 0.000000 0.000000 -7.125000 0.000000 0.000000 -6.605389 16.873978 -4.433493 0.000000 0.000000 0.000000 -3.626032 3.998952 14.781723 -23.141227 -34.242786 -7.217655 -10.715588 4.024490 53.038948 0.000000 0.000000 0.000000 7.125000 0.000000 0.000000 67.511853 75.251500 -52.820338
15.104479 16.902347 15.754286 173.209935 2.831613 -167.022367 0.000000 0.000000 0.000000 -1.671332 -19.751016 -45.601548 1.041498 6.489760 18.212387 0.942784 16.074099 19.325226 1.565176 -7.875574 -22.346752 0.000000 0.000000 0.000000 14.056792 8.915476 6.818300 -1.769250 -8.367719 23.836809 -3.220668 3.122552 -33.257979 -2.753271 10.283635 -29.901048 -3.056580 -0.567872 -28.022910 -0.740633 0.645146 1.679838 1.157540 0.139875 16.934423 -1.360000 1.318766 -1.784123 0.487489 4.095051 23.584139 0.780181 2.715938 7.493523 0.000000 0.000000 0.000000 6.265265 8.763465 -9.654814 10.992791 -18.277204 1.773623 17.584789 1.979715 12.606323 0.000000 0.000000 0.000000 -7.125000 0.000000 0.000000 -6.704750 16.833881 -4.506973 0.000000 0.000000 0.000000 -3.561163 3.854936 14.985272 -23.300306 -34.415424 -7.307419 -10.722205 3.877592 53.096113 0.000000 0.000000 0.000000 7.125000 0.000000 0.000000 67.718841 75.270575 -53.030711
